<svg width="21" height="18" viewBox="0 0 21 18" fill="none" xmlns="http://www.w3.org/2000/svg">
<path d="M16.8484 6.05391L19.9834 8.91914C20.3622 9.27026 20.2541 9.54096 19.7404 9.54096H17.3889V17.0271C17.3889 17.5408 16.9565 18 16.4427 18H12.3616V12.7565C12.3616 12.2427 11.9023 11.7835 11.3886 11.7835H8.82088C8.30716 11.7835 7.84793 12.2427 7.84793 12.7565V18H3.76673C3.25301 18 2.79378 17.5408 2.79378 17.0271V9.54096H0.469079C-0.0446381 9.54096 -0.152744 9.27026 0.226058 8.91914L9.38822 0.595013C9.76702 0.243886 10.4157 0.243886 10.8204 0.595013L12.9012 2.45962V0.97295C12.9012 0.459232 13.3604 0 13.8742 0H15.9014C16.4151 0 16.8475 0.459232 16.8475 0.97295L16.8484 6.05391Z" fill="#EAEAEA"/>
</svg>
