<svg width="18" height="20" viewBox="0 0 18 20" fill="none" xmlns="http://www.w3.org/2000/svg">
<path d="M17 8V5C17 3.89543 16.1046 3 15 3H3C1.89543 3 1 3.89543 1 5V8M17 8V17C17 18.1046 16.1046 19 15 19H3C1.89543 19 1 18.1046 1 17V8M17 8H1M5 1V5M13 1V5" stroke="#EAEAEA" stroke-width="1.5" stroke-linecap="round"/>
<path d="M5.5 10H3.5C3.22386 10 3 10.2239 3 10.5V12.5C3 12.7761 3.22386 13 3.5 13H5.5C5.77614 13 6 12.7761 6 12.5V10.5C6 10.2239 5.77614 10 5.5 10Z" fill="#EAEAEA"/>
<path d="M10 10H8C7.72386 10 7.5 10.2239 7.5 10.5V12.5C7.5 12.7761 7.72386 13 8 13H10C10.2761 13 10.5 12.7761 10.5 12.5V10.5C10.5 10.2239 10.2761 10 10 10Z" fill="#EAEAEA"/>
<path d="M14.5 10H12.5C12.2239 10 12 10.2239 12 10.5V12.5C12 12.7761 12.2239 13 12.5 13H14.5C14.7761 13 15 12.7761 15 12.5V10.5C15 10.2239 14.7761 10 14.5 10Z" fill="#EAEAEA"/>
</svg>
