<svg width="21" height="20" viewBox="0 0 21 20" fill="none" xmlns="http://www.w3.org/2000/svg">
<path d="M7.5002 3H4.7002C3.58009 3 3.01962 3 2.5918 3.21799C2.21547 3.40973 1.90973 3.71547 1.71799 4.0918C1.5 4.51962 1.5 5.08009 1.5 6.2002V15.8002C1.5 16.9203 1.5 17.4801 1.71799 17.9079C1.90973 18.2842 2.21547 18.5905 2.5918 18.7822C3.0192 19 3.57899 19 4.69691 19H14.3031C15.421 19 15.98 19 16.4074 18.7822C16.7837 18.5905 17.0905 18.2839 17.2822 17.9076C17.5 17.4802 17.5 16.921 17.5 15.8031V13M13.5 4L7.5 10V13H10.5L16.5 7M13.5 4L16.5 1L19.5 4L16.5 7M13.5 4L16.5 7" stroke="#EAEAEA" stroke-width="2" stroke-linecap="round" stroke-linejoin="round"/>
</svg>
