<svg width="19" height="18" viewBox="0 0 19 18" fill="none" xmlns="http://www.w3.org/2000/svg">
<path d="M17.7174 8.6087C17.7174 8.88613 17.7042 9.16051 17.6786 9.43122C17.2351 8.98756 16.716 8.61965 16.1421 8.34848C16.0052 4.58199 12.9087 1.57056 9.1087 1.57056C5.22164 1.57056 2.07056 4.72164 2.07056 8.6087C2.07056 12.4087 5.08199 15.5052 8.84848 15.6421C9.11965 16.216 9.48756 16.7351 9.93122 17.1786C9.66051 17.2042 9.38613 17.2174 9.1087 17.2174C4.35425 17.2174 0.5 13.3631 0.5 8.6087C0.5 3.85425 4.35425 0 9.1087 0C13.8631 0 17.7174 3.85425 17.7174 8.6087Z" fill="#EAEAEA"/>
<path d="M9.89133 8.51572L10.5508 8.89646C10.1141 9.21928 9.72714 9.6055 9.40345 10.0414L8.73103 9.65316C8.59509 9.57467 8.49163 9.46158 8.42527 9.33143C8.32611 9.17796 8.32611 8.97394 8.32611 8.97394V3.91304C8.32611 3.48081 8.67648 3.13043 9.10872 3.13043C9.54095 3.13043 9.89133 3.48082 9.89133 3.91304V8.51572Z" fill="#EAEAEA"/>
<path d="M11.6857 13.0751C11.9914 12.7695 12.4869 12.7695 12.7925 13.0751L13.2942 13.5768L14.7805 12.0906C15.0862 11.785 15.5817 11.785 15.8873 12.0906C16.1929 12.3963 16.1929 12.8918 15.8873 13.1974L13.8993 15.1854C13.8317 15.253 13.7548 15.3057 13.6727 15.3434C13.373 15.5187 12.9816 15.4778 12.7246 15.2207L11.6857 14.1819C11.3801 13.8763 11.3801 13.3807 11.6857 13.0751Z" fill="#EAEAEA"/>
<path fill-rule="evenodd" clip-rule="evenodd" d="M13.8044 18C16.3977 18 18.5 15.8977 18.5 13.3044C18.5 10.711 16.3977 8.6087 13.8044 8.6087C11.211 8.6087 9.1087 10.711 9.1087 13.3044C9.1087 15.8977 11.211 18 13.8044 18ZM13.8044 16.449C12.0677 16.449 10.6598 15.041 10.6598 13.3044C10.6598 11.5677 12.0677 10.1598 13.8044 10.1598C15.541 10.1598 16.949 11.5677 16.949 13.3044C16.949 15.041 15.541 16.449 13.8044 16.449Z" fill="#EAEAEA"/>
</svg>
